<?xml version="1.0" encoding="UTF-8"?>
<svg width="727px" height="492px" viewBox="0 0 727 492" version="1.1" xmlns="http://www.w3.org/2000/svg" xmlns:xlink="http://www.w3.org/1999/xlink">
    <!-- Generator: Sketch 48.1 (47250) - http://www.bohemiancoding.com/sketch -->
    <title>desktop</title>
    <desc>Created with Sketch.</desc>
    <defs></defs>
    <g id="Desktop-Copy" stroke="none" stroke-width="1" fill="none" fill-rule="evenodd" transform="translate(-139.000000, -164.000000)">
        <g id="desktop" transform="translate(139.498721, 165.000000)" fill-rule="nonzero">
            <path d="M232.837172,490.013223 L232.837172,484.583851 L493.1636,484.583851 L493.1636,490.013223 L232.837172,490.013223 Z M492.1636,489.013223 L492.1636,485.583851 L233.837172,485.583851 L233.837172,489.013223 L492.1636,489.013223 Z" id="Fill-5" fill="#FFFFFF"></path>
            <path d="M439.602771,471.681321 L435.961055,433.558692 L436.956524,433.463599 L440.598069,471.584485 C441.18024,477.461317 445.130023,482.344285 450.632961,484.162132 L453.583747,485.136898 L272.388238,485.136898 L275.338597,484.162138 C280.841611,482.344015 284.791377,477.461278 285.372567,471.586218 L289.043525,433.165507 L290.038991,433.26062 L286.367872,471.682996 C285.832271,477.097234 282.615603,481.723712 277.965702,484.136898 L448.005734,484.136898 C443.355958,481.723801 440.139257,477.097013 439.602771,471.681321 Z" id="Fill-1" fill="#FFFFFF"></path>
            <path d="M18.5318451,0.500154468 C8.57308592,0.500154468 0.500308936,8.57339626 0.500308936,18.532463 L0.500308936,415.533206 C0.500308936,425.492272 8.57308592,433.565514 18.5318451,433.565514 L707.468,433.565514 C717.426913,433.565514 725.500309,425.492118 725.500309,415.533206 L725.500309,18.532463 C725.500309,8.57355003 717.426913,0.500154468 707.468,0.500154468 L18.5318451,0.500154468 Z M726.500309,18.532463 L726.500309,415.533206 C726.500309,426.044403 717.979198,434.565514 707.468,434.565514 L18.5318451,434.565514 C8.02078829,434.565514 -0.499691064,426.044544 -0.499691064,415.533206 L-0.499691064,18.532463 C-0.499691064,8.0211244 8.02078829,-0.499845532 18.5318451,-0.499845532 L707.468,-0.499845532 C717.979198,-0.499845532 726.500309,8.02126528 726.500309,18.532463 Z" id="Path" fill="#FFFFFF"></path>
            <path d="M723.410947,18.5323857 L723.410947,415.533128 C723.410947,424.324833 716.259459,431.476075 707.468,431.476075 L18.5318451,431.476075 C9.74052609,431.476075 2.58967064,424.324973 2.58967064,415.533128 L2.58967064,18.5323857 C2.58967064,9.74105091 9.7407888,2.58943894 18.5318451,2.58943894 L707.468,2.58943894 C716.259196,2.58943894 723.410947,9.74119018 723.410947,18.5323857 Z M18.5318451,3.58943894 C10.293089,3.58943894 3.58967064,10.2933202 3.58967064,18.5323857 L3.58967064,415.533128 C3.58967064,423.772696 10.2928186,430.476075 18.5318451,430.476075 L707.468,430.476075 C715.707182,430.476075 722.410947,423.772541 722.410947,415.533128 L722.410947,18.5323857 C722.410947,10.2934749 715.706911,3.58943894 707.468,3.58943894 L18.5318451,3.58943894 Z" id="Stroke-11" fill="#FFFFFF"></path>
            <path d="M363,9.91638766 L363,10.4163877 C362.019252,10.4163877 361.223913,11.21154 361.223913,12.1924749 C361.223913,13.1727307 362.019345,13.9677898 363,13.9677898 C363.980655,13.9677898 364.776087,13.1727307 364.776087,12.1924749 C364.776087,11.21154 363.980748,10.4163877 363,10.4163877 L363,9.91638766 Z M363,9.91638766 L363,9.41638766 C364.532981,9.41638766 365.776087,10.6592028 365.776087,12.1924749 C365.776087,13.7251204 364.532835,14.9677898 363,14.9677898 C361.467165,14.9677898 360.223913,13.7251204 360.223913,12.1924749 C360.223913,10.6592028 361.467019,9.41638766 363,9.41638766 L363,9.91638766 Z" id="Path" fill="#FFFFFF"></path>
            <path d="M29.5,405.5 L29.5,29.5 L696.5,29.5 L696.5,405.5 L29.5,405.5 Z M30.5,404.5 L695.5,404.5 L695.5,30.5 L30.5,30.5 L30.5,404.5 Z" id="Mask" fill="#272727"></path>
        </g>
    </g>
</svg>