<?xml version="1.0" encoding="utf-8"?>
<!-- Generator: Adobe Illustrator 18.1.1, SVG Export Plug-In . SVG Version: 6.00 Build 0)  -->
<!DOCTYPE svg PUBLIC "-//W3C//DTD SVG 1.1//EN" "http://www.w3.org/Graphics/SVG/1.1/DTD/svg11.dtd">
<svg version="1.1" id="Layer_1" xmlns="http://www.w3.org/2000/svg" xmlns:xlink="http://www.w3.org/1999/xlink" x="0px" y="0px"
	 viewBox="-151 255 720 515" enable-background="new -151 255 720 515" xml:space="preserve">
<title>ipad</title>
<desc>Created with Sketch.</desc>
<g id="ipad" transform="translate(5.498721, 0.000000)">
	<path id="BACKGROUND" fill="#FFFFFF" d="M-137.1,768.5h680.8c10,0,18-8.1,18-18V274.9c0-9.9-8.1-18-18-18h-680.8
		c-9.9,0-18,8.1-18,18v475.6C-155.1,760.5-147.1,768.5-137.1,768.5z M-137.1,769.5c-10.5,0-19-8.5-19-19V274.9c0-10.5,8.5-19,19-19
		h680.8c10.5,0,19,8.5,19,19v475.6c0,10.5-8.5,19-19,19H-137.1z"/>
	<path id="Mask" fill="#DBDBDB" d="M510.4,742.9V282.5H-105v460.5L510.4,742.9z M-106,281.5h617.3v462.5l-616.5,0L-106,281.5z"/>
	<path id="Fill-10" fill="#FFFFFF" d="M538.5,524.4c-6.5,0-11.7-5.3-11.7-11.7c0-6.5,5.3-11.7,11.7-11.7c6.5,0,11.7,5.3,11.7,11.7
		C550.2,519.2,545,524.4,538.5,524.4v1c7,0,12.7-5.7,12.7-12.7c0-7-5.7-12.7-12.7-12.7c-7,0-12.7,5.7-12.7,12.7
		c0,7,5.7,12.7,12.7,12.7V524.4z"/>
	<path id="Path" fill="#FFFFFF" d="M538.5,503.3c5.2,0,9.4,4.2,9.4,9.4c0,5.2-4.2,9.4-9.4,9.4c-5.2,0-9.4-4.2-9.4-9.4
		C529.1,507.5,533.3,503.3,538.5,503.3v-1c-5.7,0-10.4,4.6-10.4,10.4c0,5.7,4.7,10.4,10.4,10.4c5.7,0,10.4-4.6,10.4-10.4
		c0-5.7-4.7-10.4-10.4-10.4V503.3z"/>
	<path id="Fill-18" fill="#FFFFFF" d="M-128.8,515c-1.3,0-2.3-1-2.3-2.3c0-1.3,1-2.3,2.3-2.3c1.3,0,2.3,1,2.3,2.3
		C-126.5,514-127.5,515-128.8,515v1c1.8,0,3.3-1.5,3.3-3.3c0-1.8-1.5-3.3-3.3-3.3c-1.8,0-3.3,1.5-3.3,3.3c0,1.8,1.5,3.3,3.3,3.3V515
		z"/>
</g>
</svg>
