<?xml version="1.0" encoding="UTF-8"?>
<svg width="720px" height="515px" viewBox="0 0 720 515" version="1.1" xmlns="http://www.w3.org/2000/svg" xmlns:xlink="http://www.w3.org/1999/xlink">
    <!-- Generator: Sketch 46.2 (44496) - http://www.bohemiancoding.com/sketch -->
    <title>ipad</title>
    <desc>Created with Sketch.</desc>
    <defs></defs>
    <g id="Desktop" stroke="none" stroke-width="1" fill="none" fill-rule="evenodd" opacity="0.5">
        <g id="Brewster" transform="translate(-155.000000, -116.000000)" fill-rule="nonzero">
            <g id="images">
                <g transform="translate(149.000000, 116.000000)">
                    <g id="ipad" transform="translate(5.498721, 0.000000)">
                        <path d="M19.8969816,513.548645 L700.653994,513.548645 C710.604446,513.548645 718.70028,505.459378 718.70028,495.517888 L718.70028,19.881089 C718.70028,9.93973824 710.604585,1.85103304 700.653994,1.85103304 L19.8969816,1.85103304 C9.94698671,1.85103304 1.85139741,9.93984391 1.85139741,19.881089 L1.85139741,495.517888 C1.85139741,505.459272 9.94712614,513.548645 19.8969816,513.548645 Z M19.8969816,514.548645 C9.39501713,514.548645 0.851397405,506.011733 0.851397405,495.517888 L0.851397405,19.881089 C0.851397405,9.38737156 9.39488938,0.851033044 19.8969816,0.851033044 L700.653994,0.851033044 C711.156676,0.851033044 719.70028,9.38726004 719.70028,19.881089 L719.70028,495.517888 C719.70028,506.011845 711.156549,514.548645 700.653994,514.548645 L19.8969816,514.548645 Z" id="BACKGROUND" fill="#FFFFFF"></path>
                        <path d="M667.354844,487.929543 L667.354844,27.4504947 L52.0405776,27.4504947 L52.0405776,487.948478 L667.354844,487.929543 Z M51.0405776,26.4504947 L668.354844,26.4504947 L668.354844,488.929512 L51.8921228,488.948482 L51.0405776,26.4504947 Z" id="Mask" fill="#DBDBDB"></path>
                        <path d="M695.479972,269.429887 C689.002498,269.429887 683.732306,264.164732 683.732306,257.693878 C683.732306,251.2227 689.002119,245.956466 695.478569,245.956466 C701.955758,245.956466 707.226235,251.222739 707.226235,257.693878 C707.226235,264.16477 701.956707,269.429887 695.479972,269.429887 L695.479972,270.429887 C702.508804,270.429887 708.226235,264.717242 708.226235,257.693878 C708.226235,250.670275 702.507864,244.956466 695.478569,244.956466 C688.449987,244.956466 682.732306,250.670264 682.732306,257.693878 C682.732306,264.717231 688.450428,270.429887 695.479972,270.429887 L695.479972,269.429887 Z" id="Fill-10" fill="#FFFFFF"></path>
                        <path d="M695.480464,248.330585 C700.646962,248.330585 704.850618,252.53134 704.850618,257.694579 C704.850618,262.856436 700.64624,267.056468 695.477656,267.056468 C690.311158,267.056468 686.107502,262.855714 686.107502,257.692475 C686.107502,252.53103 690.311467,248.330585 695.477656,248.330585 L695.480464,247.330585 C689.75937,247.330585 685.107502,251.978558 685.107502,257.692475 C685.107502,263.408154 689.759027,268.056468 695.477656,268.056468 C701.198293,268.056468 705.850618,263.408952 705.850618,257.694579 C705.850618,251.9789 701.199093,247.330585 695.480464,247.330585 L695.480464,248.330585 Z" id="Path" fill="#FFFFFF"></path>
                        <path d="M28.2028342,259.989517 C26.9353787,259.989517 25.9041497,258.95933 25.9041497,257.693878 C25.9041497,256.42764 26.9354617,255.396835 28.2028342,255.396835 C29.4697663,255.396835 30.5015186,256.427902 30.5015186,257.693878 C30.5015186,258.959069 29.4698493,259.989517 28.2028342,259.989517 L28.2028342,260.989517 C30.0218692,260.989517 31.5015186,259.511619 31.5015186,257.693878 C31.5015186,255.875468 30.0219024,254.396835 28.2028342,254.396835 C26.3832869,254.396835 24.9041497,255.875246 24.9041497,257.693878 C24.9041497,259.511841 26.3833201,260.989517 28.2028342,260.989517 L28.2028342,259.989517 Z" id="Fill-18" fill="#FFFFFF"></path>
                    </g>
                </g>
            </g>
        </g>
    </g>
</svg>